<?xml version="1.0" standalone="no"?>
<!DOCTYPE svg PUBLIC "-//W3C//DTD SVG 20010904//EN"
 "http://www.w3.org/TR/2001/REC-SVG-20010904/DTD/svg10.dtd">
<svg version="1.0" xmlns="http://www.w3.org/2000/svg"
 width="388.000000pt" height="388.000000pt" viewBox="0 0 388.000000 388.000000"
 preserveAspectRatio="xMidYMid meet">
<metadata>
Created by potrace 1.11, written by Peter Selinger 2001-2013
</metadata>
<g transform="translate(0.000000,388.000000) scale(0.100000,-0.100000)"
fill="#000000" stroke="none">
<path d="M1789 3876 c-2 -2 -35 -6 -73 -10 -38 -4 -79 -9 -90 -11 -12 -3 -32
-7 -46 -9 -210 -36 -492 -147 -673 -264 -56 -36 -186 -130 -216 -156 -73 -65
-204 -200 -249 -256 -29 -36 -58 -71 -64 -79 -54 -66 -179 -284 -218 -381 -12
-30 -26 -64 -30 -75 -18 -45 -42 -111 -46 -125 -2 -8 -10 -40 -18 -70 -8 -30
-17 -66 -20 -80 -2 -14 -9 -48 -15 -77 -20 -102 -26 -180 -25 -348 0 -177 4
-228 28 -355 2 -8 6 -33 10 -55 4 -22 12 -51 17 -65 5 -14 11 -36 13 -50 3
-14 5 -26 7 -27 1 -2 2 -6 4 -10 1 -5 4 -15 7 -23 3 -8 14 -37 23 -65 64 -187
193 -414 326 -576 63 -77 195 -209 264 -264 28 -21 52 -42 55 -46 3 -3 47 -34
97 -68 122 -81 337 -192 363 -187 3 1 17 -6 30 -15 21 -12 74 -32 125 -45 6
-1 35 -9 65 -17 80 -22 195 -45 270 -54 129 -16 432 -9 545 13 17 3 41 7 55 9
14 2 25 4 25 5 0 1 11 4 25 6 39 7 170 44 230 66 126 45 371 168 408 205 7 7
20 13 28 13 8 0 14 3 14 8 0 4 17 18 38 32 20 14 42 29 49 35 6 5 31 26 54 45
71 58 212 201 262 265 26 33 53 67 60 75 26 30 105 157 150 242 73 138 127
278 172 448 6 24 26 122 30 150 19 134 22 185 20 345 -2 99 -6 196 -9 215 -34
194 -88 394 -131 485 -7 17 -14 35 -15 40 -9 44 -198 365 -221 373 -5 2 -9 8
-9 14 0 24 -227 265 -310 330 -19 15 -53 41 -75 58 -100 79 -307 197 -435 247
-57 23 -203 73 -230 78 -79 18 -214 45 -250 50 -47 7 -395 16 -401 11z"/>
</g>
</svg>
